<svg id="Layer_1" data-name="Layer 1" xmlns="http://www.w3.org/2000/svg" xmlns:xlink="http://www.w3.org/1999/xlink" viewBox="0 0 1551.18 1830.12"><defs><style>.cls-1,.cls-11,.cls-12,.cls-17,.cls-18,.cls-2,.cls-22,.cls-3,.cls-4,.cls-5,.cls-6{fill:none;}.cls-1{clip-rule:evenodd;}.cls-10,.cls-13,.cls-15,.cls-16,.cls-2,.cls-20,.cls-21,.cls-3,.cls-4,.cls-5,.cls-7,.cls-8{fill-rule:evenodd;}.cls-2{clip-path:url(#clip-path);}.cls-4{clip-path:url(#clip-path-2);}.cls-5{clip-path:url(#clip-path-3);}.cls-6{stroke:#e2c89e;}.cls-10,.cls-11,.cls-12,.cls-17,.cls-18,.cls-22,.cls-6{stroke-linecap:round;stroke-linejoin:round;}.cls-10,.cls-11,.cls-12,.cls-6{stroke-width:15px;}.cls-7{fill:#e2c89e;}.cls-8{fill:#e5426a;}.cls-9{clip-path:url(#clip-path-4);}.cls-10,.cls-15{fill:#1f2d3d;}.cls-10{stroke:#1f2d3d;}.cls-11{stroke:gray;}.cls-12,.cls-17,.cls-18{stroke:#1f2a37;}.cls-13{fill:#f66689;}.cls-14{clip-path:url(#clip-path-5);}.cls-16{fill:gray;}.cls-17{stroke-width:10px;}.cls-18,.cls-22{stroke-width:20px;}.cls-19{clip-path:url(#clip-path-10);}.cls-20{fill:#2a3644;}.cls-21{fill:#55606e;}.cls-22{stroke:#fff;}.cls-23{clip-path:url(#clip-path-13);}</style><clipPath id="clip-path"><path class="cls-1" d="M1238.66,186.76c7.78-26.66-112.55-108.5-248.12-36.57,0,0-24.38,142-21.77,157.58-7.85,217.1,272.42,298.62,295.3,40.31,2.47-27.91-9.31-147-25.41-161.32Z"/></clipPath><clipPath id="clip-path-2"><path class="cls-1" d="M709.91,802S672.39,928.75,721.32,957.8l-132,105.89S396.26,745,576.15,704.54,709.91,802,709.91,802Z"/></clipPath><clipPath id="clip-path-3"><path class="cls-1" d="M1178.25,799.84s31.5,124-17.15,149.41l124.06,109S1485,761.58,1311.93,713.09s-133.68,86.75-133.68,86.75Z"/></clipPath><clipPath id="clip-path-4" transform="translate(-457.53 766.44)"><path class="cls-1" d="M872.14,553.65s-130.84-22.94-162.77-17.8c0,0-26.26,36.31-45.44,23.5s-18.67-43.39-3.14-47.63c0,0-42.35-22.88-63.44-50.21s-9.06-75.57,140.91-22.57c0,0,131.17,4.86,165,17.68s68.54,65.18-31.1,97Z"/></clipPath><clipPath id="clip-path-5" transform="translate(-457.53 766.44)"><path class="cls-1" d="M1132.76,544s38.08,225.74,11.72,264.39h75.72s57.85-84.28,100.44-42.14,38.71,206.32-67.19,224.31c0,0-22.94,8.78-48.5-18s-60.25-28.1-188.41-26.78c0,0-103.57,119.84-369.68-29.85,0,0-80.46,112.72-107.36,0-30.68-128.55,37.12-172.76,57.85-163.3,22.42,10.24,97.2,67.75,126,55.75,0,0,87.48-37.31,122.44-85.16s56.58-170.11,99.08-218,172.64,19.34,187.89,38.79Z"/></clipPath><clipPath id="clip-path-10" transform="translate(-457.53 766.44)"><path class="cls-1" d="M1238.66,186.76s.43,307.66-60.94,340.87-234.62,15.55-288.6-50.44-64.86-389.62,74-403.49,252,41.61,275.54,113.06Z"/></clipPath><clipPath id="clip-path-13" transform="translate(-457.53 766.44)"><path class="cls-1" d="M950.3,654.32S761.78,700,720.74,725.64c0,0-18.93,64.34-50.93,58.29s-45.44-47.58-26.29-62.39c0,0-68.16-6-109.47-30.54s-47.24-96.6,181.19-113c0,0,180.6-70.26,232.52-72.77s123.31,47.75,2.54,149Z"/></clipPath></defs><path class="cls-6" d="M1822.21-714.73s44.43-42.46,149.77-42.46" transform="translate(-457.53 766.44)"/><path class="cls-7" d="M1998.46-766.44c5.66,0,10.25,4.15,10.25,9.25s-4.59,9.25-10.25,9.25-10.25-4.14-10.25-9.25,4.59-9.25,10.25-9.25Z" transform="translate(-457.53 766.44)"/><path class="cls-8" d="M872.14,553.65s-130.84-22.94-162.77-17.8c0,0-26.26,36.31-45.44,23.5s-18.67-43.39-3.14-47.63c0,0-42.35-22.88-63.44-50.21s-9.06-75.57,140.91-22.57c0,0,131.17,4.86,165,17.68s68.54,65.18-31.1,97Z" transform="translate(-457.53 766.44)"/><g class="cls-9"><path class="cls-10" d="M773.52,457.37c15.25,64.68-19.2,130.36-76.88,146.57S579.75,580.8,564.49,516.12s19.2-130.36,76.88-146.58,116.9,23.15,132.15,87.83Z" transform="translate(-457.53 766.44)"/><path class="cls-11" d="M702.85,453.55s-44-19.73-79.56-19.67" transform="translate(-457.53 766.44)"/></g><path class="cls-12" d="M872.14,553.65s-130.84-22.94-162.77-17.8c0,0-26.26,36.31-45.44,23.5s-18.67-43.39-3.14-47.63c0,0-42.35-22.88-63.44-50.21s-9.06-75.57,140.91-22.57c0,0,131.17,4.86,165,17.68s68.54,65.18-31.1,97Z" transform="translate(-457.53 766.44)"/><path class="cls-13" d="M1132.76,544s38.08,225.74,11.72,264.39h75.72s57.85-84.28,100.44-42.14,38.71,206.32-67.19,224.31c0,0-22.94,8.78-48.5-18s-60.25-28.1-188.41-26.78c0,0-103.57,119.84-369.68-29.85,0,0-80.46,112.72-107.36,0-30.68-128.55,37.12-172.76,57.85-163.3,22.42,10.24,97.2,67.75,126,55.75,0,0,87.48-37.31,122.44-85.16s56.58-170.11,99.08-218,172.64,19.34,187.89,38.79Z" transform="translate(-457.53 766.44)"/><g class="cls-14"><path class="cls-15" d="M709.91,802S672.39,928.75,721.32,957.8l-132,105.89S396.26,745,576.15,704.54,709.91,802,709.91,802Z" transform="translate(-457.53 766.44)"/></g><g class="cls-14"><path class="cls-16" d="M560.62,926s-10.35-72.24,4.82-120.83a6,6,0,0,1,7.43-3.86,5.83,5.83,0,0,1,4,7.29c-14.53,46.55-4.42,115.77-4.42,115.77a5.85,5.85,0,0,1-5.06,6.59,5.94,5.94,0,0,1-6.72-5Z" transform="translate(-457.53 766.44)"/><path class="cls-16" d="M570.91,778.07a7.8,7.8,0,0,1,10.85-.64,7.43,7.43,0,0,1,.59,10.63,7.8,7.8,0,0,1-10.85.65,7.44,7.44,0,0,1-.59-10.64Z" transform="translate(-457.53 766.44)"/></g><g class="cls-14"><path class="cls-8" d="M1017.51,943.57c17.58,14.75,112.63-38.08,127-134.77.88-6,16.87-6.87,17.94-11.57,17.06-75.05,40.74-1.29,40.74-1.29s9.86,160.37-30.05,169.14-102.23,29.42-155.6-21.51Z" transform="translate(-457.53 766.44)"/><path class="cls-15" d="M1178.25,799.84s31.5,124-17.15,149.41l124.06,109S1485,761.58,1311.93,713.09s-133.68,86.75-133.68,86.75Z" transform="translate(-457.53 766.44)"/></g><g class="cls-14"><path class="cls-16" d="M1310.23,927.33s20.72-67.15,13.44-115.85a5.87,5.87,0,0,0-6.55-4.86,5.55,5.55,0,0,0-4.88,6.31c7,46.66-13.07,111-13.07,111a5.79,5.79,0,0,0,11.06,3.42Z" transform="translate(-457.53 766.44)"/><path class="cls-16" d="M1322.47,784.81a7.64,7.64,0,0,0-10.31-2.35,7.12,7.12,0,0,0-2.15,10,7.64,7.64,0,0,0,10.3,2.34,7.11,7.11,0,0,0,2.16-10Z" transform="translate(-457.53 766.44)"/></g><g class="cls-14"><path class="cls-8" d="M972.7,516.55c13.35,14.64,115.82,11.48,151.37-33.11,37.16-46.63,58.41,30,58.41,30s-27,87.32-66.89,76.05-103.76-25.26-142.89-72.92Z" transform="translate(-457.53 766.44)"/><path class="cls-7" d="M889,692a5.4,5.4,0,0,0,.8-1.08,5.56,5.56,0,0,0-2.19-7.69c-2-1.06-7.93-3-8.92,3.45-1,6.7-19.54,37.59-36.28,58.28a5.53,5.53,0,0,0,.93,7.92,5.91,5.91,0,0,0,8.14-1C867,732.7,887.87,697.21,889,692Zm-4.24,1.86a5.87,5.87,0,0,1-2.83-.7,5.38,5.38,0,0,0,2.83.7Z" transform="translate(-457.53 766.44)"/><path class="cls-7" d="M786.34,800.48a6.51,6.51,0,0,0,1.45-.82,6.18,6.18,0,0,0,1.21-8.85c-1.29-1.63-4.76-4.34-9.62-1.13-3.63,2.41-21.57,14-37.41,20.21a6.23,6.23,0,0,0-3.56,8.22,6.61,6.61,0,0,0,8.52,3.45c14.4-5.69,36.75-18.25,39.41-21.08Zm-4.9.08a6.47,6.47,0,0,1-2.8-2,6.18,6.18,0,0,0,2.8,2Zm.14.05h0Z" transform="translate(-457.53 766.44)"/><path class="cls-15" d="M1156.37,798.86s-157.28,96.53-367.84-37.35c-3.78-2.4,2.37-18,4.83-21.73a8.27,8.27,0,0,1,11.3-2.35c200.63,127.56,364.4,9.87,364.4,9.87a8.29,8.29,0,0,1,11.26,2.57c2.38,3.75-20.12,46.66-24,49Z" transform="translate(-457.53 766.44)"/></g><path class="cls-17" d="M1132.76,544s38.08,225.74,11.72,264.39h75.72s57.85-84.28,100.44-42.14,38.71,206.32-67.19,224.31c0,0-22.94,8.78-48.5-18s-60.25-28.1-188.41-26.78c0,0-103.57,119.84-369.68-29.85,0,0-80.46,112.72-107.36,0-30.68-128.55,37.12-172.76,57.85-163.3,22.42,10.24,97.2,67.75,126,55.75,0,0,87.48-37.31,122.44-85.16s56.58-170.11,99.08-218,172.64,19.34,187.89,38.79Z" transform="translate(-457.53 766.44)"/><path class="cls-18" d="M1107,544s5.33,198.88-13.12,243.37" transform="translate(-457.53 766.44)"/><path class="cls-8" d="M1238.66,186.76s.43,307.66-60.94,340.87-234.62,15.55-288.6-50.44-64.86-389.62,74-403.49,252,41.61,275.54,113.06Z" transform="translate(-457.53 766.44)"/><g class="cls-19"><path class="cls-13" d="M1170.87-16.58c-122.39-30-249.47,50.94-283.6,180.68s37.52,259.45,159.91,289.47,249.46-50.94,283.59-180.68-37.52-259.45-159.9-289.47Z" transform="translate(-457.53 766.44)"/><path class="cls-6" d="M1081.49,101.09s-64.22-13.93-109-4.42" transform="translate(-457.53 766.44)"/><path class="cls-7" d="M944.48,95.56c-3.93,2.87-5,7.88-2.43,11.19s7.88,3.67,11.81.8,5-7.88,2.43-11.19-7.88-3.67-11.81-.8Z" transform="translate(-457.53 766.44)"/><path class="cls-15" d="M1238.66,186.76c7.78-26.66-112.55-108.5-248.12-36.57,0,0-24.38,142-21.77,157.58-7.85,217.1,272.42,298.62,295.3,40.31,2.47-27.91-9.31-147-25.41-161.32Z" transform="translate(-457.53 766.44)"/></g><g class="cls-19"><path class="cls-20" d="M1191.3,43c-92.68,0-167.93,59.31-167.93,132.37s75.25,132.38,167.93,132.38,167.93-59.32,167.93-132.38S1284,43,1191.3,43Z" transform="translate(-457.53 766.44)"/><path class="cls-21" d="M1153.78,168.25s66.71,19.94,70,27.64,0,58,0,70.62,1.87-60.09-70-98.26Z" transform="translate(-457.53 766.44)"/></g><g class="cls-19"><path class="cls-12" d="M1238.66,186.76c7.78-26.66-112.55-108.5-248.12-36.57,0,0-24.38,142-21.77,157.58-7.85,217.1,272.42,298.62,295.3,40.31,2.47-27.91-9.31-147-25.41-161.32Z" transform="translate(-457.53 766.44)"/><polygon class="cls-22" points="680.25 980.47 734.89 1083.8 661.99 1175.7 607.35 1072.37 680.25 980.47 680.25 980.47"/></g><path class="cls-12" d="M1238.66,186.76s.43,307.66-60.94,340.87-234.62,15.55-288.6-50.44-64.86-389.62,74-403.49,252,41.61,275.54,113.06Z" transform="translate(-457.53 766.44)"/><path class="cls-13" d="M950.3,654.32S761.78,700,720.74,725.64c0,0-18.93,64.34-50.93,58.29s-45.44-47.58-26.29-62.39c0,0-68.16-6-109.47-30.54s-47.24-96.6,181.19-113c0,0,180.6-70.26,232.52-72.77s123.31,47.75,2.54,149Z" transform="translate(-457.53 766.44)"/><g class="cls-23"><path class="cls-8" d="M799.3,647.06s103.43,2.64,203.75-46.69L946.1,675.29,786.92,705.51l12.38-58.45Z" transform="translate(-457.53 766.44)"/><path class="cls-7" d="M937.48,528.1a6.55,6.55,0,0,1,10,1.77c1.16,2.19,2,7-4.2,9.72-7.08,3.06-49.27,8.81-77.29,20a6.34,6.34,0,1,1-4.75-11.76c26-10.37,70.23-18.63,76.26-19.73Zm-2.25,4.62a6.15,6.15,0,0,0,.72,3.13,5.83,5.83,0,0,1-.72-3.13Z" transform="translate(-457.53 766.44)"/><path class="cls-7" d="M838.64,554.31a6.62,6.62,0,0,1,1.43-.86,6.46,6.46,0,0,1,8.52,3.17c.85,1.9,1.64,6.17-3.57,8.82-3.89,2-26.67,6.55-42,13.86a6.47,6.47,0,0,1-8.62-2.92,6.36,6.36,0,0,1,3.1-8.5c14-6.65,37.36-12.62,41.17-13.57Zm-2.41,4.19a6.16,6.16,0,0,0,.49,3.36,5.81,5.81,0,0,1-.49-3.36Zm0-.15v0Z" transform="translate(-457.53 766.44)"/><path class="cls-10" d="M471.91,633.35c-26,105,23.85,206.22,111.16,225.9s179.27-49.59,205.24-154.59-23.85-206.22-111.16-225.9S497.87,528.35,471.91,633.35Z" transform="translate(-457.53 766.44)"/><path class="cls-11" d="M679.41,608.2s-65.29.13-106.73,19.11" transform="translate(-457.53 766.44)"/><path class="cls-16" d="M545.26,632.25c-3.2,3.67-3.18,8.83,0,11.53s8.43,1.91,11.63-1.75,3.19-8.83,0-11.53-8.43-1.91-11.64,1.75Z" transform="translate(-457.53 766.44)"/></g><path class="cls-12" d="M950.3,654.32S761.78,700,720.74,725.64c0,0-18.93,64.34-50.93,58.29s-45.44-47.58-26.29-62.39c0,0-68.16-6-109.47-30.54s-47.24-96.6,181.19-113c0,0,180.6-70.26,232.52-72.77s123.31,47.75,2.54,149Z" transform="translate(-457.53 766.44)"/></svg>